# xmcd CD database file generated by OrangeCD 5.2
#
# Track frame offsets:
#	150
#	17692
#	49527
#	63825
#	83395
#	101955
#	127842
#	153427
#	172215
#	194284
#
# Disc length: 2801 seconds
#
# Revision: 0
# Processed by: cddbd v1.5.1PL0 Copyright (c) Steve Scherf et al.
# Submitted via: OrangeCD 5.2
#
DISCID=760aef0a
DTITLE=Various Artist - Soul To Soul
DYEAR=1996
DGENRE=R&B Compilation
TTITLE0=Luther Vandross - Never Too Much
TTITLE1=Herbie Hancock - Stars In Your Eyes
TTITLE2=The O'Jays - Now That We Found Love
TTITLE3=Tyrone Davis - Give It Up (Turn It Loose )
TTITLE4=Maurice White - Stand By Me
TTITLE5=Earth, Wind and Fire - Thats The Way Of The World
TTITLE6=Cheryl Lynn - Shake It Up Tonight
TTITLE7=Gladys Knight and The Pips - I Will Fight
TTITLE8=Surface - Shower Me With Your Love
TTITLE9=Terence Trent D'Arby - Wishing Well
EXTD=
EXTT0=
EXTT1=
EXTT2=
EXTT3=
EXTT4=
EXTT5=
EXTT6=
EXTT7=
EXTT8=
EXTT9=
PLAYORDER=
